<svg xmlns="http://www.w3.org/2000/svg" width="160" height="160" viewBox="0 0 160 160" stroke="#000000" stroke-width="2.25" stroke-linecap="round" stroke-linejoin="round" fill="none">
  <path d="M57 80 C57 91.046 48.046 100 37 100 C25.954 100 17 91.046 17 80 C17 68.954 25.954 60 37 60 C48.046 60 57 68.954 57 80 Z" fill="#FBFBFA" />
  <path d="M27.4 71 L25.6 65 Q29.8 66.2 32.8 68.9 Q37 67.7 41.2 68.9 Q44.2 66.2 48.4 65 L46.6 71 Q50.2 75.2 49.6 80.9 C49.3 88.7 43.9 93.5 37 93.5 C30.1 93.5 24.7 88.7 24.4 80.9 Q23.8 75.2 27.4 71 Z" fill="#FBFBFA" />
  <path d="M32.74 79.1 C32.74 79.398 32.498 79.64 32.2 79.64 C31.902 79.64 31.66 79.398 31.66 79.1 C31.66 78.802 31.902 78.56 32.2 78.56 C32.498 78.56 32.74 78.802 32.74 79.1 Z M42.34 79.1 C42.34 79.398 42.098 79.64 41.8 79.64 C41.502 79.64 41.26 79.398 41.26 79.1 C41.26 78.802 41.502 78.56 41.8 78.56 C42.098 78.56 42.34 78.802 42.34 79.1 Z" fill="#2C3531" />
  <path d="M35.8 82.4 Q37 81.5 38.2 82.4 Q38.2 82.7 37 83.9 Q35.8 82.7 35.8 82.4 Z" fill="#4A7C59" />
  <path d="M100 80 C100 91.046 91.046 100 80 100 C68.954 100 60 91.046 60 80 C60 68.954 68.954 60 80 60 C91.046 60 100 68.954 100 80 Z" fill="#E9F1EB" />
  <path d="M70 80 L77 87 L91 72" fill="none" />
  <path d="M143 80 C143 91.046 134.046 100 123 100 C111.954 100 103 91.046 103 80 C103 68.954 111.954 60 123 60 C134.046 60 143 68.954 143 80 Z" fill="#FBFBFA" />
  <path d="M121.5 75 C121.5 77.485 119.485 79.5 117 79.5 C114.515 79.5 112.5 77.485 112.5 75 C112.5 72.515 114.515 70.5 117 70.5 C119.485 70.5 121.5 72.515 121.5 75 Z" fill="#FBFBFA" />
  <path d="M109 88 Q109 82 117 82 Q123 82 124 88" fill="none" />
  <path d="M133.5 75 C133.5 77.485 131.485 79.5 129 79.5 C126.515 79.5 124.5 77.485 124.5 75 C124.5 72.515 126.515 70.5 129 70.5 C131.485 70.5 133.5 72.515 133.5 75 Z" fill="#FBFBFA" />
  <path d="M123 88 Q124 82 129 82 Q137 82 137 88" fill="none" />
</svg>
